<svg width="200" height="70" viewBox="0 0 245 80" fill="none" 
xmlns="http://www.w3.org/2000/svg">
<path d="M38.6924 30.835L42.2568 25.8789C42.3708 25.7161 42.5173 
25.5208 42.6963 25.293C43.6403 24.1862 44.7145 23.6328 45.9189 
23.6328H48.3115C48.5882 23.6328 48.8568 23.6654 49.1172 23.7305C50.3867 
24.0723 50.8018 25.0814 50.3623 26.7578L49.4102 30.3711L52.8037 
26.0254C53.113 25.6022 53.4141 25.236 53.707 24.9268C54.5859 
24.0316 55.6032 23.584 56.7588 23.584H58.5654C58.7282 23.584 
58.8991 23.6003 59.0781 23.6328C60.543 23.877 61.0068 25.0163 
60.4697 27.0508L54.6104 49.3164C54.4964 49.7721 54.0895 50 53.3896 
50H49.7764C49.3857 50 49.109 49.9105 48.9463 49.7314C48.8486 
49.6501 48.7998 49.4792 48.7998 49.2188C48.7998 48.877 48.9463 
48.2096 49.2393 47.2168C49.2393 47.2168 50.1833 44.043 52.0713 
37.6953C52.1852 37.3047 52.2829 36.9466 52.3643 36.6211C52.8851 
34.8633 53.0316 33.9844 52.8037 33.9844C52.6572 33.9844 52.4863 
34.0902 52.291 34.3018C52.1608 34.4482 51.762 35.1074 51.0947 
36.2793C50.346 37.6139 49.3044 39.6322 47.9697 42.334C45.9678 
46.4193 44.7796 48.7467 44.4053 49.3164C44.1774 49.7721 43.7705 50 
43.1846 50H39.2295C39.083 50 38.9202 49.9186 38.7412 49.7559C38.611 
49.6257 38.611 49.3164 38.7412 48.8281L41.7686 37.6953C41.7686 
37.6953 41.8499 37.4268 42.0127 36.8896C42.5661 34.9528 42.6637 
33.9844 42.3057 33.9844C42.1429 33.9844 41.9476 34.1309 41.7197 
34.4238C41.7035 34.4401 41.3617 34.9935 40.6943 36.084C39.848 37.4837 
38.6598 39.681 37.1299 42.6758C35.2419 46.3867 34.1025 48.5189 
33.7119 49.0723C33.2236 49.6908 32.7191 50 32.1982 50H29.2197C28.943 
50 28.7233 49.8779 28.5605 49.6338C28.3978 49.3571 28.3571 49.056 28.4385 
48.7305L34.7861 25C34.9977 24.1211 35.486 23.6654 36.251 23.6328H39.376C39.7015 
23.6328 39.9701 23.6654 40.1816 23.7305C40.6699 23.8932 40.8083 24.3652 40.5967 
25.1465L38.6924 30.835ZM72.0176 36.1816C72.4082 34.3099 72.6035 32.7962 72.6035 
31.6406C72.6035 29.8177 72.1966 28.9062 71.3828 28.9062C70.8945 28.9062 70.4632 
29.0853 70.0889 29.4434C69.3402 30.2246 68.6484 31.4372 68.0137 33.0811C66.5814 
36.7269 65.8652 39.5182 65.8652 41.4551C65.8652 43.5059 66.3047 44.5312 67.1836 
44.5312C67.6882 44.515 68.1439 44.3197 68.5508 43.9453C69.1855 43.3431 69.7552 
42.4642 70.2598 41.3086C71.1224 39.3555 71.7083 37.6465 72.0176 36.1816ZM62.7891 
29.9316C63.2122 28.9551 63.7249 28.0599 64.3271 27.2461C65.2223 26.0254 
66.2233 25.0814 67.3301 24.4141C68.6647 23.6003 70.1621 23.1934 71.8223 
23.1934C72.1641 23.1934 72.4896 23.2096 72.7988 23.2422C74.8659 23.5026 
76.3796 24.5768 77.3398 26.4648C77.5514 26.8555 77.7223 27.3112 77.8525 
27.832C78.0641 28.6621 78.1699 30.1432 78.1699 32.2754C78.1699 33.0241 
78.1211 33.8053 78.0234 34.6191C77.6003 38.1022 76.4772 41.3737 74.6543 
44.4336C74.3451 44.9544 74.0195 45.459 73.6777 45.9473C71.5293 48.9095 69.2507 50.3906 66.8418 50.3906C66.3535 50.3906 65.9385 50.3743 65.5967 50.3418C63.8551 50.1628 62.4554 49.2839 61.3975 47.7051C60.3721 46.1263 59.8594 44.043 59.8594 41.4551C59.8594 37.9069 60.8359 34.0658 62.7891 29.9316ZM88.2773 30.835L91.8418 25.8789C91.9557 25.7161 92.1022 25.5208 92.2812 25.293C93.2253 24.1862 94.2995 23.6328 95.5039 23.6328H97.8965C98.1732 23.6328 98.4417 23.6654 98.7021 23.7305C99.9717 24.0723 100.387 25.0814 99.9473 26.7578L94.0879 48.9746C93.9089 49.6419 93.4694 49.9837 92.7695 50H88.9854C88.7087 50 88.5052 49.9268 88.375 49.7803C88.2122 49.6012 88.196 49.2839 88.3262 48.8281L91.3535 37.6953C91.3535 37.679 91.4349 37.4105 91.5977 36.8896C92.1673 34.9528 92.265 33.9844 91.8906 33.9844C91.7279 33.9844 91.5326 34.1309 91.3047 34.4238C91.2884 34.4401 90.9466 34.9935 90.2793 36.084C89.4329 37.4837 88.2448 39.681 86.7148 42.6758C84.8268 46.3867 83.6875 48.5189 83.2969 49.0723C82.8249 49.6745 82.3203 49.9837 81.7832 50H78.8047C78.6745 50 78.5443 49.9593 78.4141 49.8779C78.0234 49.6501 77.8932 49.2676 78.0234 48.7305L84.3711 25C84.6152 24.1211 85.1035 23.6654 85.8359 23.6328H88.9609C89.2865 23.6328 89.555 23.6654 89.7666 23.7305C90.3037 23.9095 90.4421 24.3815 90.1816 25.1465L88.2773 30.835ZM106.612 23.6328H110.567C111.43 23.6491 111.788 24.0234 111.642 24.7559L105.294 48.9258C105.099 49.6257 104.61 49.9837 103.829 50H99.874C99.0114 49.9837 98.6533 49.6094 98.7998 48.877L105.147 24.707C105.343 24.0072 105.831 23.6491 106.612 23.6328ZM106.368 17.0898C106.368 16.3737 106.572 15.7227 106.979 15.1367C107.678 14.1602 108.679 13.6719 109.981 13.6719H110.665C111.349 13.6719 112.008 13.9404 112.643 14.4775C113.505 15.2262 113.937 16.097 113.937 17.0898C113.937 17.806 113.717 18.457 113.277 19.043C112.561 19.987 111.544 20.459 110.226 20.459H109.591C108.891 20.459 108.24 20.2067 107.638 19.7021C106.791 19.0023 106.368 18.1315 106.368 17.0898ZM126.119 24.1699C127.372 24.6908 128.268 25.2441 128.805 25.8301C128.902 25.944 128.992 26.0661 129.073 26.1963C129.35 26.7171 129.326 27.1647 129 27.5391L126.754 29.9316C126.721 29.9642 126.656 30.0293 126.559 30.127C126.168 30.4688 125.761 30.5176 125.338 30.2734C124.036 29.5085 123.141 29.126 122.652 29.126C122.652 29.126 122.604 29.1341 122.506 29.1504C121.952 29.3132 121.204 30.3385 120.26 32.2266C118.99 34.7331 118.144 36.9629 117.721 38.916C117.232 41.0807 116.988 42.6432 116.988 43.6035C116.988 44.4987 117.118 44.987 117.379 45.0684L120.211 42.627C120.699 42.2038 121.269 42.2038 121.92 42.627L123.971 43.9941C124.133 44.1081 124.264 44.2627 124.361 44.458C124.524 44.8649 124.492 45.2311 124.264 45.5566C123.678 46.4518 122.75 47.404 121.48 48.4131C120.813 48.9502 120.032 49.5036 119.137 50.0732C118.697 50.3662 118.209 50.5208 117.672 50.5371C116.858 50.5371 115.743 50.179 114.327 49.4629C112.879 48.7142 111.967 47.8678 111.593 46.9238C111.17 45.8333 110.958 44.5719 110.958 43.1396C110.958 41.0075 111.438 38.5173 112.398 35.6689C113.294 32.9508 114.286 30.778 115.377 29.1504C117.949 25.3255 120.439 23.4131 122.848 23.4131C123.792 23.4131 124.882 23.6654 126.119 24.1699ZM135.543 46.6309H135.567L135.47 46.4111L135.006 46.9727C134.42 47.6725 133.915 48.2503 133.492 48.7061C132.548 49.6663 131.702 50.1465 130.953 50.1465H130.611C130.058 50.1139 129.244 49.5768 128.17 48.5352C126.917 47.2982 126.29 45.931 126.29 44.4336C126.29 41.5365 127.299 37.3779 129.317 31.958C130.636 28.3773 131.995 26.0579 133.395 25C134.501 24.1699 135.803 23.7467 137.301 23.7305C138.701 23.7305 140.035 24.1781 141.305 25.0732L141.402 24.6582C141.5 24.2676 141.606 24.0072 141.72 23.877C141.964 23.6165 142.249 23.4863 142.574 23.4863H145.699C146.855 23.4863 147.311 24.0234 147.066 25.0977L141.695 43.042C142.151 42.5863 142.509 42.1387 142.77 41.6992C143.095 41.1784 143.502 41.0645 143.99 41.3574L146.139 42.7734C146.611 43.1315 146.725 43.5059 146.48 43.8965C146.041 44.5312 145.577 45.1335 145.089 45.7031C142.647 48.5189 140.182 50.0326 137.691 50.2441C137.317 50.2767 137.024 50.0977 136.812 49.707L135.543 46.6309ZM140.279 29.1504C140.214 29.1341 140.149 29.1097 140.084 29.0771C139.482 28.8981 138.977 28.8167 138.57 28.833C138.196 28.833 137.903 28.9062 137.691 29.0527C137.122 29.4922 136.381 30.8594 135.47 33.1543C134.298 36.1003 133.476 38.8021 133.004 41.2598C132.906 41.8132 132.849 42.1794 132.833 42.3584C132.833 42.6025 132.931 42.7246 133.126 42.7246C133.24 42.7246 133.346 42.7083 133.443 42.6758C134.046 42.3991 134.843 41.4388 135.836 39.7949C137.561 36.8164 138.961 33.5124 140.035 29.8828L140.279 29.1504ZM148.189 47.6562C148.189 47.0052 148.377 46.403 148.751 45.8496C149.402 44.9056 150.354 44.4336 151.607 44.4336H152.242C152.877 44.4336 153.495 44.6777 154.098 45.166C154.944 45.8659 155.367 46.696 155.367 47.6562C155.367 48.3398 155.164 48.9502 154.757 49.4873C154.073 50.415 153.105 50.8789 151.852 50.8789H151.266C150.615 50.8789 150.004 50.6592 149.435 50.2197C148.604 49.5524 148.189 48.6979 148.189 47.6562Z" fill="black"/>
</svg>
